<?xml version="1.0" encoding="utf-8"?>
<!-- Generator: Adobe Illustrator 24.1.2, SVG Export Plug-In . SVG Version: 6.00 Build 0)  -->
<svg version="1.1" id="Calque_1" xmlns="http://www.w3.org/2000/svg" xmlns:xlink="http://www.w3.org/1999/xlink" x="0px" y="0px"
	 viewBox="0 0 146 435.2" style="enable-background:new 0 0 146 435.2;" xml:space="preserve">
<style type="text/css">
	.st0{display:none;}
	.st1{fill:#FFFFFF;}
	.st2{fill:none;stroke:#FFFFFF;stroke-width:3;stroke-linecap:round;stroke-linejoin:round;stroke-miterlimit:10;}
	.st3{fill:none;stroke:#FFFFFF;stroke-width:2;stroke-linecap:round;stroke-linejoin:round;stroke-miterlimit:10;}
	.st4{fill:none;stroke:#FFFFFF;stroke-width:2;stroke-miterlimit:10;}
	.st5{fill:none;stroke:#FFFFFF;stroke-width:2;stroke-linecap:round;stroke-miterlimit:10;}
</style>
<rect class="st0" width="146" height="435.2"/>
<path id="play" class="st1" d="M102.6,191.3v-22.8c0-1.7,2-2.8,3.5-1.9l21.7,12.2c0.9,0.5,0.9,1.7,0,2.2l-21.7,12.2
	C104.6,194.1,102.6,193.1,102.6,191.3z"/>
<g id="pause">
	<path class="st1" d="M27.9,193.8h-2.4c-1.5,0-2.8-1.2-2.8-2.8v-22.3c0-1.5,1.2-2.8,2.8-2.8h2.4c1.5,0,2.8,1.2,2.8,2.8v22.3
		C30.7,192.6,29.4,193.8,27.9,193.8z"/>
	<path class="st1" d="M39.7,193.8h-2.4c-1.5,0-2.8-1.2-2.8-2.8v-22.3c0-1.5,1.2-2.8,2.8-2.8h2.4c1.5,0,2.8,1.2,2.8,2.8v22.3
		C42.5,192.6,41.3,193.8,39.7,193.8z"/>
</g>
<g id="fullscreen">
	<g id="Fleche">
		<polyline class="st2" points="35.7,236.2 45.7,236.2 45.7,246.1 		"/>
		<line class="st2" x1="35.9" y1="246" x2="45.7" y2="236.2"/>
	</g>
	<g id="Fleche_1_">
		<polyline class="st2" points="29.5,262.4 19.5,262.4 19.5,252.4 		"/>
		<line class="st2" x1="29.3" y1="252.5" x2="19.5" y2="262.4"/>
	</g>
</g>
<g id="not_subtitles">
	<path class="st1" d="M115.5,101.2c-10,0-16,9-16,9s4.3,9,16,9c10.2,0,16-9,16-9S125.5,101.2,115.5,101.2z M115.5,116.4
		c-3.4,0-6.2-2.8-6.2-6.2c0-3.4,2.8-6.2,6.2-6.2s6.2,2.8,6.2,6.2C121.7,113.6,119,116.4,115.5,116.4z"/>
	<line class="st3" x1="129.3" y1="96.5" x2="101.8" y2="123.9"/>
	<circle class="st1" cx="115.6" cy="110.2" r="2.2"/>
</g>
<g id="subtitles">
	<path class="st1" d="M115.5,20.9c-10,0-16,9-16,9s4.3,9,16,9c10.2,0,16-9,16-9S125.5,20.9,115.5,20.9z M115.5,36.1
		c-3.4,0-6.2-2.8-6.2-6.2c0-3.4,2.8-6.2,6.2-6.2s6.2,2.8,6.2,6.2C121.7,33.3,119,36.1,115.5,36.1z"/>
	<circle class="st1" cx="115.6" cy="29.9" r="2.2"/>
</g>
<g id="Sound_Off">
	<g id="sound">
		<path class="st1" d="M17.3,119.3h4v-18.2h-4c-2.3,0-4.1,1.8-4.1,4.1v10.1C13.2,117.5,15,119.3,17.3,119.3z"/>
		<path class="st1" d="M24.3,121.3l7.9,8.6c1.5,1.6,4.1,0.6,4.1-1.6V92.2c0-2.1-2.6-3.2-4.1-1.6l-7.9,8.6V121.3z"/>
	</g>
	<g>
		<line class="st3" x1="52.1" y1="104.4" x2="40.5" y2="116"/>
		<line class="st3" x1="52.1" y1="116" x2="40.5" y2="104.4"/>
	</g>
</g>
<g id="Sound_on">
	<g id="sound_1_">
		<path class="st1" d="M17.5,39h4V20.7h-4c-2.3,0-4.1,1.8-4.1,4.1v10.1C13.4,37.1,15.2,39,17.5,39z"/>
		<path class="st1" d="M24.5,41l7.9,8.6c1.5,1.6,4.1,0.6,4.1-1.6V11.9c0-2.1-2.6-3.2-4.1-1.6l-7.9,8.6V41z"/>
	</g>
	<g>
		<path class="st3" d="M40.8,38.9c2.7-1.6,4.6-5,4.6-9s-1.9-7.4-4.6-9"/>
		<path class="st3" d="M44.6,44.1c4.2-2.6,7.2-8,7.2-14.2s-2.9-11.7-7.2-14.2"/>
	</g>
</g>
<g id="Replay_2_">
	<path class="st2" d="M111.5,239.8c1.1-1,2.5-1.3,3.9-1.3c7.3,0,13.2,5.9,13.2,13.2c0,7.3-5.9,13.2-13.2,13.2
		c-6.4,0-11.7-4.5-12.9-10.5"/>
	<path id="play_3_" class="st1" d="M114.6,234.1l3.4,8.1c0.3,0.6-0.3,1.3-1,1.2l-9.5-1.1c-0.4,0-0.6-0.5-0.3-0.8l5.9-7.6
		C113.5,233.4,114.3,233.5,114.6,234.1z"/>
</g>
<g id="photos">
	<path class="st1" d="M20.4,313.5c0-1.8,1.4-3.2,3.2-3.2h16.3c0.5,0,0.8-0.4,0.8-0.8l0,0c0-1.8-1.4-3.2-3.2-3.2H19.6
		c-1.8,0-3.2,1.4-3.2,3.2v17.9c0,1.8,1.4,3.2,3.2,3.2h0c0.5,0,0.8-0.4,0.8-0.8V313.5z"/>
	<path class="st1" d="M45.7,337.9H27.7c-1.8,0-3.2-1.4-3.2-3.2v-17.9c0-1.8,1.4-3.2,3.2-3.2h17.9c1.8,0,3.2,1.4,3.2,3.2v17.9
		C48.9,336.4,47.5,337.9,45.7,337.9z"/>
</g>
<g id="camera">
	<path class="st1" d="M121.1,337.4h-19.6c-1.3,0-2.3-1-2.3-2.3v-11.5c0-1.3,1-2.3,2.3-2.3h19.6c1.3,0,2.3,1,2.3,2.3v11.5
		C123.4,336.3,122.4,337.4,121.1,337.4z"/>
	<path class="st1" d="M125.4,333.5l4.3,3.2c0.8,0.6,2.2,0.2,2.2-0.6v-13.6c0-0.8-1.4-1.2-2.2-0.6l-4.3,3.2V333.5z"/>
	<g>
		<path class="st1" d="M121.5,318.8c1.2-1.3,1.9-3,1.9-4.9c0-4-3.2-7.2-7.2-7.2c-4,0-7.2,3.2-7.2,7.2c0,1.9,0.7,3.6,1.9,4.9h10.4
			C121.4,318.8,121.4,318.8,121.5,318.8z"/>
	</g>
	<g>
		<path class="st1" d="M107.5,309.7c-0.4-0.1-0.7-0.1-1.1-0.1c-3,0-5.5,2.5-5.5,5.5c0,1.4,0.6,2.7,1.5,3.7h5.4
			c-1-1.3-1.7-2.9-1.7-4.7C106,312.4,106.6,310.9,107.5,309.7z"/>
	</g>
</g>
<image style="display:none;overflow:visible;" width="30" height="30" xlink:href="codex_icon.png"  transform="matrix(1.1027 0 0 1.1027 98.6558 369.4484)">
</image>
<g>
	<circle class="st4" cx="39.1" cy="399.1" r="5.9"/>
	<line class="st5" x1="43.4" y1="403.1" x2="49.2" y2="408.9"/>
	<path class="st3" d="M30.3,399.3l-0.4-0.5c-2.2-2.9-5.4-4.8-8.9-5.4l-0.3,0V375h0c3.7,0.4,7.1,2.3,9.5,5.1l0.1,0.1V399.3z"/>
	<path class="st3" d="M44.1,396v-15.2l-1.7-0.7c-3.3-1.4-7.1-1.4-10.4,0l-1.7,0.7"/>
	<path class="st3" d="M20.2,379.4c-0.7,0.2-1.3,0.4-2,0.7l-1.7,0.7v19l1.7-0.7c3.3-1.4,7.1-1.4,10.4,0l1.7,0.7l1.7-0.7
		c0.4-0.2,0.7-0.3,1.1-0.4"/>
</g>
</svg>
