<?xml version="1.0" encoding="iso-8859-1"?>
<!-- Generator: Adobe Illustrator 22.1.0, SVG Export Plug-In . SVG Version: 6.00 Build 0)  -->
<svg version="1.1" id="Layer_1" xmlns="http://www.w3.org/2000/svg" xmlns:xlink="http://www.w3.org/1999/xlink" x="0px" y="0px"
	 viewBox="-49 141 512 512" style="enable-background:new -49 141 512 512;" xml:space="preserve">
<path style="fill:#FFFFFF;" d="M70.611,420.884h204.641l-64.332,64.473c-3.15,3.148-4.878,7.412-4.878,11.887
	c0,4.475,1.728,8.71,4.878,11.865l10.01,10.015c3.148,3.148,7.342,4.888,11.815,4.888c4.475,0,8.672-1.728,11.82-4.876
	L354.842,408.87c3.16-3.16,4.888-7.37,4.876-11.847c0.012-4.503-1.716-8.715-4.876-11.87L244.566,274.876
	c-3.148-3.145-7.342-4.876-11.82-4.876c-4.473,0-8.667,1.733-11.815,4.876l-10.01,10.015c-3.15,3.143-4.878,7.34-4.878,11.815
	c0,4.473,1.728,8.449,4.878,11.594l65.058,64.834H70.86c-9.217,0-16.962,7.944-16.962,17.156v14.165
	c0,9.212,7.974,16.534,17.191,16.534"/>
</svg>
